<svg width="44" height="46" viewBox="0 0 44 46" fill="none" xmlns="http://www.w3.org/2000/svg">
<path fill-rule="evenodd" clip-rule="evenodd" d="M2.06873 11.0972L7.15104 1.3672L17.6702 1.58342L23.1683 11.6417L18.086 21.3716L7.56686 21.1554L2.06873 11.0972ZM6.5866 0.334635L18.2571 0.57452L24.289 11.6093L18.6505 22.4042L6.97999 22.1643L0.94805 11.1295L6.5866 0.334635ZM7.04701 24.4436L1.58426 34.4371L7.06994 44.4726L17.9954 44.4726L23.4582 34.4791L17.9725 24.4436L7.04701 24.4436ZM18.5532 23.4233L6.48929 23.4233L0.457349 34.4581L6.48929 45.4929L18.5532 45.4929L24.5851 34.4581L18.5532 23.4233ZM26.1254 12.8098L20.6627 22.8033L26.1483 32.8388L37.0738 32.8388L42.5366 22.8452L37.0509 12.8098L26.1254 12.8098ZM37.6316 11.7895L25.5677 11.7895L19.5358 22.8243L25.5677 33.8591L37.6316 33.8591L43.6635 22.8243L37.6316 11.7895Z" fill="black"/>
</svg>
